<mxfile host="app.diagrams.net" modified="2022-08-19T03:30:33.549Z" agent="5.0 (Windows NT 10.0; Win64; x64) AppleWebKit/537.36 (KHTML, like Gecko) Chrome/104.0.0.0 Safari/537.36" etag="N8fIYQpZ_88tgcvTAPV1" version="20.2.5" type="github">
  <diagram name="Page-1" id="13e1069c-82ec-6db2-03f1-153e76fe0fe0">
    <mxGraphModel dx="2321" dy="1522" grid="1" gridSize="10" guides="1" tooltips="1" connect="1" arrows="1" fold="1" page="1" pageScale="1" pageWidth="1100" pageHeight="850" background="none" math="0" shadow="0">
      <root>
        <mxCell id="0" />
        <mxCell id="1" parent="0" />
        <mxCell id="Ij-BPRSM2mrHnCP3Lo8y-1" value="Empleado" style="swimlane;fontStyle=1;align=center;verticalAlign=top;childLayout=stackLayout;horizontal=1;startSize=26;horizontalStack=0;resizeParent=1;resizeParentMax=0;resizeLast=0;collapsible=1;marginBottom=0;" vertex="1" parent="1">
          <mxGeometry x="-870" y="-560" width="560" height="242" as="geometry" />
        </mxCell>
        <mxCell id="Ij-BPRSM2mrHnCP3Lo8y-12" value="id: String" style="text;strokeColor=#6c8ebf;fillColor=#dae8fc;align=left;verticalAlign=top;spacingLeft=4;spacingRight=4;overflow=hidden;rotatable=0;points=[[0,0.5],[1,0.5]];portConstraint=eastwest;" vertex="1" parent="Ij-BPRSM2mrHnCP3Lo8y-1">
          <mxGeometry y="26" width="560" height="20" as="geometry" />
        </mxCell>
        <mxCell id="Ij-BPRSM2mrHnCP3Lo8y-2" value="nombre: String" style="text;strokeColor=#6c8ebf;fillColor=#dae8fc;align=left;verticalAlign=top;spacingLeft=4;spacingRight=4;overflow=hidden;rotatable=0;points=[[0,0.5],[1,0.5]];portConstraint=eastwest;" vertex="1" parent="Ij-BPRSM2mrHnCP3Lo8y-1">
          <mxGeometry y="46" width="560" height="20" as="geometry" />
        </mxCell>
        <mxCell id="Ij-BPRSM2mrHnCP3Lo8y-6" value="private String correo&#xa;" style="text;strokeColor=#6c8ebf;fillColor=#dae8fc;align=left;verticalAlign=top;spacingLeft=4;spacingRight=4;overflow=hidden;rotatable=0;points=[[0,0.5],[1,0.5]];portConstraint=eastwest;" vertex="1" parent="Ij-BPRSM2mrHnCP3Lo8y-1">
          <mxGeometry y="66" width="560" height="20" as="geometry" />
        </mxCell>
        <mxCell id="Ij-BPRSM2mrHnCP3Lo8y-7" value="private String empresa" style="text;strokeColor=#6c8ebf;fillColor=#dae8fc;align=left;verticalAlign=top;spacingLeft=4;spacingRight=4;overflow=hidden;rotatable=0;points=[[0,0.5],[1,0.5]];portConstraint=eastwest;" vertex="1" parent="Ij-BPRSM2mrHnCP3Lo8y-1">
          <mxGeometry y="86" width="560" height="24" as="geometry" />
        </mxCell>
        <mxCell id="Ij-BPRSM2mrHnCP3Lo8y-8" value="private String rol" style="text;strokeColor=#6c8ebf;fillColor=#dae8fc;align=left;verticalAlign=top;spacingLeft=4;spacingRight=4;overflow=hidden;rotatable=0;points=[[0,0.5],[1,0.5]];portConstraint=eastwest;" vertex="1" parent="Ij-BPRSM2mrHnCP3Lo8y-1">
          <mxGeometry y="110" width="560" height="20" as="geometry" />
        </mxCell>
        <mxCell id="Ij-BPRSM2mrHnCP3Lo8y-3" value="" style="line;strokeWidth=1;fillColor=none;align=left;verticalAlign=middle;spacingTop=-1;spacingLeft=3;spacingRight=3;rotatable=0;labelPosition=right;points=[];portConstraint=eastwest;" vertex="1" parent="Ij-BPRSM2mrHnCP3Lo8y-1">
          <mxGeometry y="130" width="560" height="8" as="geometry" />
        </mxCell>
        <mxCell id="Ij-BPRSM2mrHnCP3Lo8y-4" value="+ crearEmp(iString id, String nombre, String correo, String empresa, String rol)" style="text;strokeColor=none;fillColor=none;align=left;verticalAlign=top;spacingLeft=4;spacingRight=4;overflow=hidden;rotatable=0;points=[[0,0.5],[1,0.5]];portConstraint=eastwest;" vertex="1" parent="Ij-BPRSM2mrHnCP3Lo8y-1">
          <mxGeometry y="138" width="560" height="26" as="geometry" />
        </mxCell>
        <mxCell id="Ij-BPRSM2mrHnCP3Lo8y-9" value="+ buscarEmp(String id)" style="text;strokeColor=none;fillColor=none;align=left;verticalAlign=top;spacingLeft=4;spacingRight=4;overflow=hidden;rotatable=0;points=[[0,0.5],[1,0.5]];portConstraint=eastwest;" vertex="1" parent="Ij-BPRSM2mrHnCP3Lo8y-1">
          <mxGeometry y="164" width="560" height="26" as="geometry" />
        </mxCell>
        <mxCell id="Ij-BPRSM2mrHnCP3Lo8y-10" value="+ modificarEmp(String id, modelo Empleado" style="text;strokeColor=none;fillColor=none;align=left;verticalAlign=top;spacingLeft=4;spacingRight=4;overflow=hidden;rotatable=0;points=[[0,0.5],[1,0.5]];portConstraint=eastwest;" vertex="1" parent="Ij-BPRSM2mrHnCP3Lo8y-1">
          <mxGeometry y="190" width="560" height="26" as="geometry" />
        </mxCell>
        <mxCell id="Ij-BPRSM2mrHnCP3Lo8y-11" value="+ EliminarEmp(String id)" style="text;strokeColor=none;fillColor=none;align=left;verticalAlign=top;spacingLeft=4;spacingRight=4;overflow=hidden;rotatable=0;points=[[0,0.5],[1,0.5]];portConstraint=eastwest;" vertex="1" parent="Ij-BPRSM2mrHnCP3Lo8y-1">
          <mxGeometry y="216" width="560" height="26" as="geometry" />
        </mxCell>
        <mxCell id="Ij-BPRSM2mrHnCP3Lo8y-21" style="edgeStyle=orthogonalEdgeStyle;rounded=0;orthogonalLoop=1;jettySize=auto;html=1;entryX=0.483;entryY=0.005;entryDx=0;entryDy=0;entryPerimeter=0;" edge="1" parent="1" source="Ij-BPRSM2mrHnCP3Lo8y-14" target="Ij-BPRSM2mrHnCP3Lo8y-1">
          <mxGeometry relative="1" as="geometry" />
        </mxCell>
        <mxCell id="Ij-BPRSM2mrHnCP3Lo8y-14" value="Modelo" style="shape=folder;fontStyle=1;spacingTop=10;tabWidth=40;tabHeight=14;tabPosition=left;html=1;" vertex="1" parent="1">
          <mxGeometry x="-890" y="-820" width="110" height="50" as="geometry" />
        </mxCell>
        <mxCell id="Ij-BPRSM2mrHnCP3Lo8y-17" value="name" style="endArrow=block;endFill=1;html=1;edgeStyle=orthogonalEdgeStyle;align=left;verticalAlign=top;rounded=0;" edge="1" parent="1">
          <mxGeometry x="-1" relative="1" as="geometry">
            <mxPoint x="-890" y="-580" as="sourcePoint" />
            <mxPoint x="-730" y="-580" as="targetPoint" />
          </mxGeometry>
        </mxCell>
        <mxCell id="Ij-BPRSM2mrHnCP3Lo8y-18" value="1" style="edgeLabel;resizable=0;html=1;align=left;verticalAlign=bottom;" connectable="0" vertex="1" parent="Ij-BPRSM2mrHnCP3Lo8y-17">
          <mxGeometry x="-1" relative="1" as="geometry" />
        </mxCell>
      </root>
    </mxGraphModel>
  </diagram>
</mxfile>
